<?xml version="1.0" standalone="no"?>
<!DOCTYPE svg PUBLIC "-//W3C//DTD SVG 20010904//EN"
 "http://www.w3.org/TR/2001/REC-SVG-20010904/DTD/svg10.dtd">
<svg version="1.0" xmlns="http://www.w3.org/2000/svg"
 width="700.000000pt" height="700.000000pt" viewBox="0 0 700.000000 700.000000"
 preserveAspectRatio="xMidYMid meet">
<metadata>
Created by Cursor AI for Credit Card Generator
</metadata>
<g transform="translate(0.000000,700.000000) scale(0.100000,-0.100000)"
fill="#000000" stroke="none">
<path d="M3280 6994 c-19 -2 -84 -9 -145 -14 -700 -69 -1401 -387 -1925 -874
-147 -137 -368 -396 -468 -548 -26 -40 -52 -77 -57 -83 -17 -18 -124 -210
-177 -320 -264 -539 -370 -1128 -307 -1715 25 -243 81 -496 156 -710 215 -613
597 -1140 1113 -1537 150 -115 162 -123 320 -219 537 -326 1148 -485 1775
-462 203 8 290 16 440 40 639 105 1212 380 1685 810 126 114 346 355 435 475
322 433 536 931 618 1438 28 173 38 297 38 475 1 173 -8 312 -29 450 -78 507
-259 963 -540 1365 -90 128 -295 362 -412 470 -537 497 -1213 804 -1920 871
-117 11 -505 21 -600 15z m520 -419 c664 -77 1249 -347 1720 -795 137 -130
340 -373 435 -520 283 -439 434 -910 460 -1435 43 -881 -332 -1745 -1015
-2335 -128 -111 -351 -266 -498 -346 -693 -379 -1520 -460 -2282 -225 -137 43
-395 148 -516 211 -531 278 -980 727 -1259 1259 -63 121 -168 355 -211 475
-89 250 -141 496 -158 755 -10 143 -10 397 0 545 16 256 66 498 153 745 309
876 1021 1549 1911 1801 235 67 462 101 730 110 127 4 410 -4 530 -15z"/>
<path d="M3380 6170 c-157 -16 -224 -28 -350 -61 -363 -94 -685 -276 -955
-539 -301 -293 -508 -661 -600 -1065 -30 -129 -34 -156 -40 -245 -3 -47 -9
-106 -14 -133 -9 -53 -8 -272 2 -327 3 -19 10 -66 16 -105 6 -38 13 -86 16
-105 66 -445 294 -850 638 -1138 140 -116 242 -181 417 -266 264 -127 551
-190 840 -183 436 10 813 137 1165 392 80 59 251 215 322 295 119 133 244 320
313 465 105 223 168 440 193 665 12 109 6 383 -10 465 -5 25 -12 65 -15 90
-19 135 -93 354 -176 520 -203 407 -545 733 -956 913 -256 112 -536 167 -806
160 -41 -1 -41 -1 -46 39 -5 45 -33 92 -70 119 -24 17 -45 19 -205 18 -98 0
-234 -9 -302 -19 -16 -2 -55 -7 -85 -10 -105 -12 -120 -15 -252 -44 -153 -34
-193 -62 -199 -141 -2 -34 -7 -43 -40 -63 -102 -62 -225 -212 -291 -355 -42
-92 -54 -148 -57 -281 -3 -111 0 -135 23 -217 80 -289 297 -503 587 -580 114
-30 276 -28 395 5 172 48 334 161 440 308 71 98 132 248 148 367 7 49 6 50 47
92 41 43 43 44 106 43 56 0 81 -7 171 -48 145 -66 213 -122 290 -237 106 -159
146 -352 112 -546 -36 -202 -168 -391 -352 -502 -113 -69 -215 -97 -361 -98
-98 -1 -137 3 -190 19 -226 72 -294 104 -385 186 -51 46 -139 157 -139 175 0
5 -7 17 -16 28 -26 31 -79 192 -88 267 -8 65 -8 66 -48 85 -22 11 -65 20 -95
20 -102 0 -138 -30 -280 -227 -60 -84 -136 -177 -170 -209 -155 -146 -354
-240 -573 -273 -237 -36 -496 36 -686 188 -206 165 -329 405 -345 674 -5 79
14 242 36 313 70 227 222 431 409 550 72 46 235 117 323 140 102 28 143 60
151 119 5 38 10 43 73 79 38 22 101 55 141 73 85 40 220 84 311 103 33 6 74
15 90 19 17 3 70 8 118 10 l87 3 39 -40 c33 -34 47 -43 82 -46 70 -6 90 11
166 150 87 157 159 252 271 353 133 120 308 215 488 264 116 31 347 36 463 9
249 -58 444 -177 611 -373 208 -244 309 -555 278 -859 -8 -81 -10 -91 -39
-182 -70 -225 -198 -395 -390 -520 -55 -36 -167 -89 -229 -109 -28 -9 -61 -20
-75 -25 -14 -5 -58 -14 -97 -19 -107 -14 -277 -6 -345 16 -183 61 -267 98
-369 165 -66 44 -173 156 -173 181 0 5 -6 19 -14 30 -8 10 -24 45 -35 76 -45
119 -47 280 -7 412 37 120 144 272 243 343 51 36 166 88 219 99 57 12 182 12
239 0 68 -15 165 -59 220 -100 93 -70 170 -184 205 -305 19 -62 24 -188 9
-245 -22 -92 -64 -175 -122 -242 -73 -85 -145 -130 -268 -167 -49 -15 -84 -17
-184 -13 -94 3 -136 9 -175 25 -143 58 -259 179 -309 323 -37 105 -41 237 -10
335 28 93 88 184 159 241 55 44 180 91 259 98 l50 4 -6 -47 c-7 -63 17 -145
62 -204 100 -133 288 -167 433 -78 80 49 151 163 152 244 0 52 -30 151 -59
193 -75 110 -242 169 -376 135 -22 -6 -41 -9 -43 -7 -2 3 -6 31 -9 63 -11 114
-64 245 -137 338 -107 136 -273 235 -437 263 -67 11 -189 10 -258 -2 -246 -42
-455 -221 -544 -465 -25 -70 -28 -88 -29 -203 0 -118 2 -132 28 -200 34 -86
69 -138 136 -203 116 -114 245 -166 401 -163 125 3 209 30 304 98 102 73 177
185 211 314 21 82 14 216 -15 298 -48 132 -159 248 -286 298 -44 17 -77 22
-155 23 -55 0 -105 -2 -112 -5 -7 -3 -17 1 -22 9 -6 10 -27 14 -65 14 -31 0
-64 5 -75 12 -19 11 -19 13 -5 43 9 17 20 50 25 73 17 74 -6 217 -47 300 -100
201 -336 313 -544 258 -41 -10 -73 -24 -102 -47 -40 -31 -70 -92 -67 -135 1
-29 39 -104 58 -114 6 -3 10 -15 10 -26 0 -19 5 -20 133 -16 l132 4 54 -28
c80 -41 136 -111 163 -204 22 -78 15 -212 -16 -274 -44 -90 -149 -178 -241
-202 -171 -44 -359 50 -422 212 -13 32 -18 69 -18 140 0 84 3 103 28 158 37
82 95 145 171 185 33 17 67 31 75 31 8 0 36 7 62 15 41 13 64 14 151 4 57 -6
104 -13 105 -14 1 -1 -1 -28 -5 -60 -12 -85 -5 -145 17 -145 31 0 222 161 270
228 13 18 18 -9 18 -120 -1 -26 -7 -64 -14 -83 -12 -36 -10 -37 22 -17 18 12
63 50 99 85 l66 64 0 -39 c0 -22 3 -70 6 -108 6 -67 5 -70 -17 -77 -22 -7 -23
-9 -9 -36 24 -49 156 -189 223 -237 131 -91 298 -127 462 -99 218 38 382 174
455 378 20 54 24 82 24 185 0 108 -3 129 -28 195 -49 133 -146 245 -266 309
-74 39 -153 62 -240 69 -191 16 -367 -58 -495 -210 -97 -115 -163 -287 -156
-405 2 -29 6 -55 9 -58 3 -3 30 21 59 53 29 31 63 64 75 73 l21 15 21 -60 c33
-94 103 -184 187 -240 118 -79 291 -97 425 -44 148 59 249 179 285 339 26 114
-5 269 -74 370 -71 103 -196 186 -316 210 -65 13 -190 4 -258 -18 -30 -9 -56
-15 -58 -12 -2 2 -6 28 -9 58 -15 137 -119 281 -252 348 -48 24 -67 29 -133
29 -87 0 -152 -19 -222 -66 -55 -37 -97 -84 -130 -148 -22 -41 -23 -56 -23
-220 l0 -175 -58 -12 c-73 -14 -114 -35 -180 -92 -98 -84 -150 -196 -155 -330
-4 -98 12 -164 63 -253 74 -131 199 -211 349 -225 105 -9 194 15 285 78 69 48
142 151 167 236 21 73 23 202 4 266 -34 115 -119 213 -222 255 -50 20 -73 23
-163 23 l-105 0 -48 50 c-38 40 -48 57 -53 95 -4 37 -2 51 12 66 26 29 100 55
168 59 l60 4 0 -59 c0 -84 23 -144 78 -201 68 -71 118 -84 297 -75 80 5 146 4
151 -1 6 -6 27 -4 59 7 102 32 216 161 254 285 28 92 26 226 -4 305 -51 132
-143 215 -274 247 -105 25 -229 -1 -308 -64 -112 -89 -168 -233 -143 -366 11
-57 50 -138 84 -175 14 -16 26 -34 26 -42 0 -7 9 -16 19 -20 21 -7 241 46 297
72 110 50 216 159 265 272 25 58 43 151 39 200 -4 42 -3 45 20 45 28 0 27 -9
-10 -124 -67 -209 -248 -371 -471 -419 -77 -17 -229 -15 -305 4 -82 20 -198
77 -262 129 -31 26 -114 113 -144 152 -11 14 -24 23 -28 20 -4 -2 -16 -48 -26
-101 -10 -53 -25 -113 -33 -132 -7 -20 -11 -39 -9 -43 3 -4 -10 -16 -29 -27
-26 -14 -49 -18 -108 -16 -108 5 -193 58 -251 156 -32 55 -39 76 -42 140 -5
70 15 130 64 195 38 51 121 96 189 105 66 8 137 -13 180 -52 20 -18 38 -39 41
-47 6 -16 -21 -130 -36 -154 -5 -7 -10 -21 -12 -30 -7 -34 -152 -117 -154
-88 -6 62 -6 126 0 155 5 23 3 37 -6 46 -10 10 -16 10 -28 1 -8 -7 -38 -18
-65 -24 -28 -7 -79 -26 -115 -43 -68 -30 -147 -51 -215 -58 -27 -3 -35 0 -40
16 -4 10 -15 25 -25 31 -10 7 -110 17 -260 26 -262 15 -359 24 -480 43 -213
33 -455 126 -641 247 -249 162 -445 383 -573 647 -53 110 -106 267 -124 366
-8 43 -17 94 -20 112 -7 39 -7 221 0 265 10 63 16 98 30 160 57 261 174 481
359 672 259 269 603 425 969 438 171 6 369 -29 516 -92 283 -121 504 -320 652
-583 142 -252 198 -570 150 -850 -9 -52 -18 -108 -21 -124 -3 -16 -1 -30 5
-34 5 -3 10 -15 10 -26 0 -10 4 -19 9 -19 22 0 182 131 248 204 42 45 133 176
133 190 0 11 61 118 76 134 9 10 49 81 91 160 30 57 34 100 10 129 -21 24 -32
26 -157 29 -76 2 -197 -3 -290 -12z"/>
</g>
</svg>
