<?xml version="1.0" encoding="UTF-8" standalone="no"?>
<svg xmlns="http://www.w3.org/2000/svg" width="1000" height="328" viewBox="0 0 1000 328">
  <rect x="0" y="0" width="1000" height="328" rx="40" ry="40" fill="#ff6600" />
  <path d="M 500,44 C 346,44 220,128 220,164 220,200 346,284 500,284 654,284 780,200 780,164 780,128 654,44 500,44 Z" fill="#ffffff" />
  <g fill="#ff6600">
    <path d="M 290,147 H 350 V 181 H 290 Z" />
    <path d="M 370,147 H 430 V 181 H 370 Z" />
    <path d="M 450,147 H 550 V 181 H 450 Z" />
    <path d="M 570,147 H 640 V 181 H 570 Z" />
    <path d="M 660,147 H 710 V 181 H 660 Z" />
  </g>
  <text x="350" y="220" font-family="Arial, sans-serif" font-weight="bold" font-size="70" fill="#ffffff">DISCOVER</text>
</svg> 